<svg
        width="110"
        height="110"
        viewBox="0 0 110 110"
        fill="none"
        xmlns="http://www.w3.org/2000/svg"
      >
        <path
          d="M91.29 36.1473L83.8163 32.6631C82.0425 31.8359 80.0413 29.6538 79.3705 27.8107L76.5504 20.0625C75.2089 16.3768 71.102 14.4617 67.4165 15.8009L59.6652 18.6221C57.8242 19.2922 54.8626 19.161 53.0889 18.3349L45.6162 14.8503C42.0656 13.1946 37.8033 14.7459 36.1476 18.2966L32.6644 25.7732C31.8361 27.5475 29.6477 29.5498 27.8107 30.2184C27.8107 30.2184 23.7434 31.6988 20.0625 33.0385C16.3816 34.3783 14.4626 38.4866 15.8041 42.1724L18.6243 49.9207C19.2925 51.7566 19.1653 54.7225 18.3377 56.4956L14.8521 63.9687C13.1944 67.5201 14.7458 71.7824 18.2999 73.4415L25.7736 76.9257C27.5485 77.7525 29.5512 79.9421 30.2194 81.7781L33.0396 89.5265C34.3797 93.2083 38.492 95.1259 42.1728 93.7862L49.9212 90.966C51.7621 90.296 54.7229 90.425 56.4967 91.2513L63.9701 94.7378C67.5201 96.3916 71.7824 94.8402 73.4388 91.2915L76.9227 83.8169C77.751 82.0426 79.9355 80.0417 81.7764 79.3717L89.5277 76.5504C93.2125 75.2093 95.1262 71.0984 93.7861 67.4166L90.9659 59.6682C90.2948 57.8243 90.4259 54.8661 91.2525 53.0933L94.7381 45.6202C96.3902 42.0662 94.8387 37.8038 91.29 36.1473ZM54.9614 71.7931L34.8114 62.3954L37.823 55.9387L51.5163 62.324L64.6621 34.1413L71.1182 37.152L54.9614 71.7931Z"
          fill="#006FFF"
        />
        <path
          d="M54.9615 71.7931L34.8115 62.3954L37.8231 55.9388L51.5163 62.324L64.6622 34.1413L71.1183 37.152L54.9615 71.7931Z"
          fill="white"
        />
      </svg>