<svg xmlns="http://www.w3.org/2000/svg" width="500" height="501" viewBox="0 0 500 501" version="1.1"><path d="" stroke="none" fill="#30c414" fill-rule="evenodd"/><path d="M 228.293 130.488 C 211.047 133.616, 193.435 141.173, 178.717 151.760 C 168.253 159.287, 153.841 174.625, 147.158 185.345 C 124.817 221.187, 122.365 266.388, 140.749 303.500 C 146.561 315.232, 154.834 326.781, 163.930 335.859 C 211.790 383.628, 288.210 383.628, 336.070 335.859 C 366.600 305.388, 378.499 261.035, 367.421 219 C 362.168 199.064, 352.859 182.440, 338.381 167.138 C 319.759 147.456, 297.078 135.056, 271.289 130.458 C 261.577 128.727, 237.911 128.743, 228.293 130.488 M 233 169.537 C 228.381 170.823, 186.176 192.112, 160.251 206.231 L 153.002 210.179 156.405 216.340 C 158.276 219.728, 172.046 245.225, 187.005 273 C 201.964 300.775, 215.047 324.885, 216.077 326.578 C 219.533 332.256, 227.799 333.861, 232.415 329.750 C 233.805 328.512, 238.746 320.312, 243.394 311.526 C 248.043 302.740, 252.218 295.436, 252.673 295.294 C 253.128 295.153, 257.506 302.703, 262.403 312.072 C 271.957 330.353, 273.455 332, 280.527 332 C 283.161 332, 284.895 331.247, 286.860 329.250 C 288.349 327.738, 301.652 304, 316.422 276.500 C 331.192 249, 344.151 225.037, 345.220 223.250 L 347.163 220 336.190 220 L 325.217 220 303.024 262 C 290.817 285.100, 280.523 304, 280.148 304 C 279.773 304, 274.074 293.163, 267.483 279.918 C 260.893 266.673, 255.183 255.634, 254.796 255.388 C 254.410 255.141, 250.302 256.989, 245.668 259.495 L 237.244 264.050 239.758 268.775 L 242.273 273.500 234.630 288.750 C 230.427 297.137, 226.653 303.986, 226.244 303.970 C 225.491 303.940, 181.757 221.001, 181.197 218.543 C 180.749 216.573, 233.505 189.167, 239.268 188.377 C 247.930 187.189, 255.563 191.718, 259.633 200.459 C 263.745 209.290, 262.407 217.534, 255.869 223.654 C 254.016 225.388, 243.275 231.639, 232 237.545 C 220.725 243.451, 211.336 248.421, 211.135 248.590 C 210.825 248.851, 218.568 263.878, 219.505 264.832 C 219.684 265.015, 229.597 260.065, 241.535 253.832 C 268.835 239.578, 276.395 233.109, 280.097 220.834 C 281.774 215.275, 281.299 204.062, 279.122 197.798 C 271.381 175.521, 252.672 164.057, 233 169.537" stroke="none" fill="#2cc414" fill-rule="evenodd"/></svg>